<?xml version="1.0" encoding="UTF-8"?>
<svg width="60px" height="25px" viewBox="0 0 60 25" version="1.1" xmlns="http://www.w3.org/2000/svg" xmlns:xlink="http://www.w3.org/1999/xlink">
    <title>Logos/Network/FOX/White</title>
    <g id="Main-Page---V1" stroke="none" stroke-width="1" fill="none" fill-rule="evenodd">
        <g id="Web_XL" transform="translate(-125.000000, -4890.000000)" fill="#FFFFFF">
            <g id="XL/Section/Footer" transform="translate(0.000000, 4860.000000)">
                <g id="Logos/Network/FOX/White" transform="translate(125.000000, 30.000000)">
                    <path d="M15.544435,0 L16.0027825,6.81881305 L7.56730547,6.81881305 L7.56730547,10.0904347 L14.4467728,10.0904347 L14.4467728,16.9312462 L7.56730547,16.9312462 L7.56730547,25 L5.32907052e-15,25 L5.32907052e-15,0 L15.544435,0 Z M45.0065652,4.52644184e-05 L48.0423592,5.35020899 L51.0782437,4.52644184e-05 L59.1918907,4.52644184e-05 L52.1116304,12.5217224 L59.1918907,24.9999457 L51.0370531,24.9999457 L48.0423592,19.7184028 L45.0477558,24.9999457 L36.8929181,24.9999457 L43.9731785,12.5217224 L36.8929181,4.52644184e-05 L45.0065652,4.52644184e-05 Z M28.1387615,0.00797559053 C35.0401369,0.00797559053 40.6347285,5.60256718 40.6347285,12.5039425 C40.6347285,19.4053179 35.0401369,25 28.1387615,25 C21.2373862,25 15.6427946,19.4053179 15.6427946,12.5039425 C15.6427946,5.60256718 21.2373862,0.00797559053 28.1387615,0.00797559053 Z M28.1735246,5.14720713 C27.0326802,5.14720713 26.1103724,6.19516895 26.1103724,7.36615945 L26.1103724,7.36615945 L26.1079281,17.6029793 C26.1079281,18.774694 27.0326802,19.7237078 28.1727098,19.7237078 C29.3133732,19.7237078 30.3276583,18.804478 30.3276583,17.6328538 L30.3276583,17.6328538 L30.3276583,7.36615945 C30.3276583,6.19516895 29.3133732,5.14720713 28.1735246,5.14720713 Z" id="New-Fox-Logo"></path>
                </g>
            </g>
        </g>
    </g>
</svg>