<svg width="60" height="60" viewBox="0 0 60 60" fill="none" xmlns="http://www.w3.org/2000/svg">
<g opacity="0.5">
<path d="M29.6524 23.4855V1.81397C33.9774 1.81224 38.2057 3.08179 41.8026 5.46203C45.3995 7.84228 48.2034 11.2263 49.8597 15.1861C51.516 19.1459 51.9502 23.5036 51.1076 27.708C50.2649 31.9125 48.1831 35.7748 45.1255 38.8065C42.0679 41.8382 38.1719 43.903 33.9302 44.7399C29.6885 45.5768 25.2916 45.1482 21.2958 43.5082C17.2999 41.8682 13.8844 39.0905 11.4815 35.5264C9.07847 31.9624 7.79587 27.7721 7.79587 23.4855H51.5178" fill="#4D96CF"/>
<path d="M29.6524 23.4855V1.81397C33.9774 1.81224 38.2057 3.08179 41.8026 5.46203C45.3995 7.84228 48.2034 11.2263 49.8597 15.1861C51.516 19.1459 51.9502 23.5036 51.1076 27.708C50.2649 31.9125 48.1831 35.7748 45.1255 38.8065C42.0679 41.8382 38.1719 43.903 33.9302 44.7399C29.6885 45.5768 25.2916 45.1482 21.2958 43.5082C17.2999 41.8682 13.8844 39.0905 11.4815 35.5264C9.07847 31.9624 7.79587 27.7721 7.79587 23.4855H51.5178" stroke="#231F20" stroke-width="2" stroke-linecap="round" stroke-linejoin="round"/>
</g>
<path d="M29.6524 23.4855V1.81397C33.9774 1.81224 38.2057 3.08179 41.8026 5.46203C45.3995 7.84228 48.2034 11.2263 49.8597 15.1861C51.516 19.1459 51.9502 23.5036 51.1076 27.708C50.2649 31.9125 48.1831 35.7748 45.1255 38.8065C42.0679 41.8382 38.1719 43.903 33.9302 44.7399C29.6885 45.5768 25.2916 45.1482 21.2958 43.5082C17.2999 41.8682 13.8844 39.0905 11.4815 35.5264C9.07847 31.9624 7.79587 27.7721 7.79587 23.4855H51.5178" stroke="#2D4D85" stroke-width="2" stroke-linecap="round" stroke-linejoin="round"/>
<path d="M16.7532 58.5087C19.5426 58.5087 21.8038 56.2675 21.8038 53.5029C21.8038 50.7382 19.5426 48.4971 16.7532 48.4971C13.9638 48.4971 11.7026 50.7382 11.7026 53.5029C11.7026 56.2675 13.9638 58.5087 16.7532 58.5087Z" stroke="#2D4D85" stroke-width="2" stroke-linecap="round" stroke-linejoin="round"/>
<path d="M16.7532 53.5028L26.0185 44.8517" stroke="#2D4D85" stroke-width="2" stroke-linecap="round" stroke-linejoin="round"/>
<path d="M43.8891 58.5087C46.6785 58.5087 48.9397 56.2675 48.9397 53.5029C48.9397 50.7382 46.6785 48.4971 43.8891 48.4971C41.0998 48.4971 38.8385 50.7382 38.8385 53.5029C38.8385 56.2675 41.0998 58.5087 43.8891 58.5087Z" stroke="#2D4D85" stroke-width="2" stroke-linecap="round" stroke-linejoin="round"/>
<path d="M43.8891 53.5028L34.6238 44.8517" stroke="#2D4D85" stroke-width="2" stroke-linecap="round" stroke-linejoin="round"/>
<path d="M12.6353 4.22096C13.3656 1.86631 11.2274 -0.322641 9.1157 1.13375C7.00395 2.59015 8.16541 4.29073 8.16541 4.29073C8.16541 4.29073 6.97756 2.61631 4.85701 4.04654C2.73647 5.47678 4.04751 8.25875 6.52881 8.40701C8.18357 8.51869 9.83125 8.71664 11.465 9.00003C11.7701 7.38774 12.1608 5.79251 12.6353 4.22096Z" fill="#2D4D85"/>
<path d="M23.2116 5.47673C20.6511 5.11917 20.3608 7.15115 20.3608 7.15115C20.3608 7.15115 20.6511 5.11045 18.0994 4.75289C15.5477 4.39534 14.5799 7.29068 16.3397 9.11336C17.4746 10.3139 18.5465 11.5713 19.5513 12.8808C20.8828 11.904 22.2662 10.9986 23.6956 10.1686C25.8249 8.88661 25.7633 5.84301 23.2116 5.47673Z" fill="#2D4D85"/>
<path d="M14.0783 12.6802C11.5794 13.3168 12.0985 15.2965 12.0985 15.2965C12.0985 15.2965 11.5618 13.3168 9.06291 13.9535C6.56401 14.5901 6.82798 17.625 9.06291 18.6192C10.5681 19.2956 12.0366 20.0495 13.4624 20.8779C14.3144 19.466 15.2426 18.1006 16.2428 16.7878C17.8003 14.8255 16.5596 12.0436 14.0783 12.6802Z" fill="#2D4D85"/>
</svg>
