<?xml version="1.0" encoding="UTF-8"?>
<svg width="60px" height="60px" viewBox="0 0 60 60" version="1.1" xmlns="http://www.w3.org/2000/svg" xmlns:xlink="http://www.w3.org/1999/xlink">
    <title>Icons/Utility/Alerts/Off/50</title>
    <g id="Main-Page---V2" stroke="none" stroke-width="1" fill="none" fill-rule="evenodd">
        <g id="Web_XL" transform="translate(-125.000000, -3385.000000)" fill-rule="nonzero">
            <g id="XL/Section/Perks" transform="translate(125.000000, 2997.000000)">
                <g id="Recruitment-Site_Icon_C_03" transform="translate(0.000000, 388.000000)">
                    <path d="M49.2265611,25.5567533 L37.4612936,25.5567533 C34.0510712,25.5567533 31.3228932,28.2849312 31.3228932,31.6951537 L31.3228932,31.6951537 L31.3228932,35.2758872 L55.3649615,35.2758872 L55.3649615,31.6951537 C55.3649615,28.2849312 52.6367835,25.5567533 49.2265611,25.5567533 L49.2265611,25.5567533 Z" id="Path" fill="#4D96CF" opacity="0.5"></path>
                    <path d="M42.9176495,53.2648107 L35.8414379,53.2648107 C33.7953045,53.2648107 32.1754488,54.9699219 32.1754488,57.0160554 L32.1754488,57.0160554 L32.1754488,59.1474444 L46.6688942,59.1474444 L46.6688942,57.0160554 C46.6688942,54.9699219 45.0490386,53.2648107 42.9176495,53.2648107 C43.0029051,53.2648107 43.0029051,53.2648107 42.9176495,53.2648107 Z" id="Path" fill="#4D96CF" opacity="0.5"></path>
                    <path d="M43.3439273,11.5748412 C40.104216,11.5748412 37.4612936,14.2177636 37.4612936,17.4574749 L37.4612936,17.4574749 C37.4612936,20.6971863 40.104216,23.3401087 43.3439273,23.3401087 C46.5836387,23.3401087 49.2265611,20.6971863 49.2265611,17.4574749 C49.3118166,14.2177636 46.6688942,11.5748412 43.3439273,11.5748412 Z" id="Path" fill="#4D96CF" opacity="0.5"></path>
                    <path d="M42.9176495,48.4052437 C42.9176495,46.4443658 41.2977939,44.8245101 39.336916,44.9097657 C37.3760381,44.9950212 35.8414379,46.4443658 35.8414379,48.4052437 C35.8414379,50.3661216 37.4612936,51.9859772 39.4221715,51.9007217 C41.3830494,51.9859772 42.9176495,50.3661216 42.9176495,48.4052437 L42.9176495,48.4052437 Z" id="Path" fill="#4D96CF" opacity="0.5"></path>
                    <path d="M24.9287261,13.5357191 C24.8434705,13.0241858 24.5877039,12.5979079 24.1614261,12.2568857 C22.7120815,11.233819 20.0691591,12.4273968 18.1935368,14.9850637 C16.3179144,17.5427305 15.9768922,20.4414196 17.3409812,21.4644863 C17.8525145,21.8055086 18.4493035,21.8907641 19.0460924,21.8055086 L30.385082,24.0221532 L24.9287261,13.5357191 L24.9287261,13.5357191 Z" id="Path" fill="#4D96CF" opacity="0.5"></path>
                    <path d="M16.2326589,42.0963321 L7.7923583,42.0963321 C5.31994702,42.0963321 3.35906911,44.05721 3.35906911,46.5296213 L3.35906911,46.5296213 L3.35906911,49.0872882 L20.665948,49.0872882 L20.665948,46.5296213 C20.665948,44.05721 18.7050701,42.0963321 16.2326589,42.0963321 L16.2326589,42.0963321 Z" id="Path" fill="#4D96CF" opacity="0.5"></path>
                    <circle id="Oval" fill="#4D96CF" opacity="0.5" cx="12.0551364" cy="36.298954" r="4.26277806"></circle>
                    <path d="M53.9156169,52.5827662 C53.5745947,53.0942995 53.6598502,53.6910885 54.1713836,54.0321107 C54.682917,54.373133 55.2797059,54.2878774 55.6207282,53.776344 C55.9617504,53.2648107 55.8764948,52.6680217 55.3649615,52.3269995 C55.0239392,52.0712328 54.3418947,52.1564884 53.9156169,52.5827662 C54.0008725,52.5827662 54.0008725,52.5827662 53.9156169,52.5827662 Z" id="Path" fill="#2D4D85"></path>
                    <path d="M57.5816061,50.1103549 C57.2405838,50.6218883 57.3258394,51.2186772 57.8373727,51.5596994 C58.3489061,51.9007217 58.945695,51.8154661 59.2867173,51.3039328 C59.6277395,50.7923994 59.542484,50.1956105 59.0309506,49.8545882 C58.6899284,49.5988215 58.0078839,49.6840771 57.5816061,50.1103549 C57.6668616,50.1103549 57.6668616,50.1103549 57.5816061,50.1103549 Z" id="Path" fill="#2D4D85"></path>
                    <path d="M11.2878363,21.720253 C10.9468141,22.2317864 11.0320696,22.8285753 11.543603,23.2548531 C12.0551364,23.5958753 12.6519253,23.5106198 13.0782031,22.9990864 C13.4192253,22.4875531 13.3339698,21.8907641 12.8224364,21.4644863 C12.310903,21.0382085 11.7141141,21.2087196 11.2878363,21.720253 C11.3730919,21.720253 11.3730919,21.720253 11.2878363,21.720253 Z" id="Path" fill="#2D4D85"></path>
                    <path d="M0.204613347,17.6279861 C-0.136408898,18.1395194 -0.0511533367,18.7363084 0.460380031,19.1625862 C0.971913398,19.5036084 1.56870233,19.4183528 1.99498013,18.9068195 C2.33600238,18.3952861 2.25074682,17.7984972 1.73921345,17.3722194 C1.22768008,16.9459416 0.630891153,17.1164527 0.204613347,17.6279861 C0.289868908,17.6279861 0.289868908,17.6279861 0.204613347,17.6279861 Z" id="Path" fill="#2D4D85"></path>
                    <path d="M13.7602476,2.45249616 C14.1012698,1.94096279 14.0160143,1.34417386 13.5044809,1.00315162 C12.9929475,0.662129373 12.3961586,0.747384934 12.0551364,1.2589183 C11.7141141,1.77045167 11.7993697,2.3672406 12.310903,2.70826284 C12.7371809,3.04928509 13.4192253,2.96402953 13.7602476,2.45249616 Z" id="Path" fill="#2D4D85"></path>
                    <path d="M56.7290505,36.1284429 C58.3489061,36.1284429 59.7129951,34.7643539 59.7129951,33.1444982 L59.7129951,6.37425198 C59.7129951,4.75439631 58.3489061,3.39030733 56.7290505,3.39030733 L30.0440598,3.39030733 C28.4242041,3.39030733 27.0601151,4.75439631 27.0601151,6.37425198 L27.0601151,12.6831635 C27.0601151,13.1946969 27.4011374,13.5357191 27.9126708,13.5357191 C28.4242041,13.5357191 28.7652264,13.1946969 28.7652264,12.6831635 L28.7652264,6.37425198 C28.7652264,5.69220749 29.3620153,5.09541856 30.0440598,5.09541856 L56.7290505,5.09541856 C57.4110949,5.09541856 58.0078839,5.60695193 58.0078839,6.37425198 L58.0078839,6.37425198 L58.0078839,33.1444982 C58.0078839,33.8265427 57.4110949,34.4233316 56.7290505,34.4233316 L30.0440598,34.4233316 C29.3620153,34.4233316 28.7652264,33.8265427 28.7652264,33.1444982 L28.7652264,26.4945644 C28.7652264,25.9830311 28.4242041,25.6420088 27.9126708,25.6420088 C27.4011374,25.6420088 27.0601151,25.9830311 27.0601151,26.4945644 L27.0601151,33.1444982 C27.0601151,34.7643539 28.4242041,36.1284429 30.0440598,36.1284429 L56.7290505,36.1284429 Z" id="Path" fill="#2D4D85"></path>
                    <path d="M54.2566392,39.8796875 L54.2566392,41.4142876 C54.2566392,41.925821 54.5976614,42.2668433 55.1091948,42.2668433 C55.6207282,42.2668433 55.9617504,41.925821 55.9617504,41.4142876 L55.9617504,39.8796875 C55.9617504,39.3681542 55.6207282,39.0271319 55.1091948,39.0271319 C54.5976614,39.0271319 54.2566392,39.3681542 54.2566392,39.8796875 Z" id="Path" fill="#2D4D85"></path>
                    <path d="M54.3418947,43.1193989 C54.3418947,42.6078655 54.0008725,42.2668433 53.4893391,42.2668433 L51.954739,42.2668433 C51.4432057,42.2668433 51.1021834,42.6078655 51.1021834,43.1193989 C51.1021834,43.6309322 51.4432057,43.9719545 51.954739,43.9719545 L53.4893391,43.9719545 C53.9156169,43.9719545 54.3418947,43.5456767 54.3418947,43.1193989 Z" id="Path" fill="#2D4D85"></path>
                    <path d="M55.1091948,43.8866989 C54.5976614,43.8866989 54.2566392,44.2277212 54.2566392,44.7392545 L54.2566392,46.2738546 C54.2566392,46.785388 54.5976614,47.1264103 55.1091948,47.1264103 C55.6207282,47.1264103 55.9617504,46.785388 55.9617504,46.2738546 L55.9617504,44.7392545 C55.9617504,44.3129767 55.6207282,43.8866989 55.1091948,43.8866989 Z" id="Path" fill="#2D4D85"></path>
                    <path d="M59.2014617,43.1193989 C59.2014617,42.6078655 58.8604395,42.2668433 58.3489061,42.2668433 L56.814306,42.2668433 C56.3027726,42.2668433 55.9617504,42.6078655 55.9617504,43.1193989 C55.9617504,43.6309322 56.3027726,43.9719545 56.814306,43.9719545 L58.3489061,43.9719545 C58.8604395,43.9719545 59.2014617,43.5456767 59.2014617,43.1193989 Z" id="Path" fill="#2D4D85"></path>
                    <path d="M5.1494359,10.2107522 C6.85454712,10.7222856 8.04812498,9.44345218 9.07119172,8.50564101 C10.0942585,7.56782983 10.6057918,6.97104091 11.2878363,7.14155203 C11.9698808,7.31206315 12.0551364,8.16461876 12.310903,9.52870774 C12.5666697,10.8927967 12.8224364,12.6831635 14.5275476,13.1946969 C14.6128032,13.1946969 14.6980588,13.1946969 14.7833143,13.1946969 C15.2948477,13.1946969 15.6358699,12.8536746 15.6358699,12.3421413 C15.6358699,12.001119 15.3801032,11.6600968 15.039081,11.5748412 C14.4422921,11.4043301 14.271781,10.5517745 14.0160143,9.1876855 C13.7602476,7.82359652 13.5044809,6.03322973 11.7993697,5.52169636 C10.0942585,5.010163 8.90068059,6.20374085 7.87761386,7.22680759 C6.85454712,8.24987432 6.2577582,8.76140769 5.66096927,8.59089657 C3.87060248,7.99410764 3.52958024,5.35118524 3.44432467,5.35118524 C3.35906911,4.83965187 2.93279131,4.49862963 2.5065135,4.58388519 C1.99498013,4.66914075 1.65395789,5.09541856 1.73921345,5.52169636 C1.82446901,5.69220749 2.33600238,9.27294106 5.1494359,10.2107522 Z" id="Path" fill="#2D4D85"></path>
                    <path d="M31.1523821,23.5958753 L25.6960262,13.1094413 C25.525515,12.5126524 25.1844928,11.9158635 24.6729594,11.4895857 C23.9909149,11.0633078 23.1383593,10.8927967 22.3710593,10.9780523 C20.4101814,11.4895857 18.6198146,12.6831635 17.5114923,14.3882747 C16.5736811,15.5818526 15.9768922,17.0311971 15.7211255,18.5657972 C15.4653588,19.8446307 15.8916366,21.2087196 16.9147034,22.0612752 C17.4262367,22.4022975 18.0230256,22.6580642 18.6198146,22.5728086 C18.7903257,22.5728086 18.8755813,22.5728086 19.0460924,22.5728086 L30.2998265,24.7894532 L30.4703376,24.7894532 C30.7261043,24.7894532 30.981871,24.7041976 31.1523821,24.448431 C31.3228932,24.2779198 31.3228932,23.9368976 31.1523821,23.5958753 Z M18.9608368,20.9529529 L18.9608368,20.9529529 C18.6198146,21.0382085 18.1935368,20.9529529 17.9377701,20.7824418 C17.4262367,20.2709085 17.2557256,19.588864 17.4262367,18.9068195 C17.6820034,17.6279861 18.1935368,16.5196638 18.9608368,15.496597 C19.8133924,14.132508 21.1774814,13.1946969 22.7120815,12.7684191 L23.0531038,12.7684191 C23.3088704,12.7684191 23.5646371,12.8536746 23.7351483,12.9389302 C23.9909149,13.1094413 24.1614261,13.4504636 24.1614261,13.7062302 C24.4171927,14.8998081 23.8204038,16.6901749 22.7120815,18.224775 C21.7742703,19.588864 20.4954369,20.5266751 18.9608368,20.9529529 Z M21.7742703,21.4644863 C22.626826,20.8676974 23.394126,20.1003973 23.9909149,19.2478417 C24.6729594,18.3952861 25.0992372,17.4574749 25.525515,16.3491526 L28.8504819,22.8285753 L21.7742703,21.4644863 Z" id="Shape" fill="#2D4D85"></path>
                    <path d="M13.4192253,16.9459416 C13.2487142,16.6049193 12.1403919,15.1555748 10.6910474,15.2408303 C9.92374733,15.3260859 9.15644728,15.8376193 8.90068059,16.6049193 C8.73016947,16.9459416 8.47440279,17.2017083 8.13338054,17.2869638 C7.53659161,17.3722194 6.93980269,17.2017083 6.51352488,16.860686 C6.08724707,16.6049193 5.57571371,16.6901749 5.31994702,17.0311971 C5.06418034,17.4574749 5.1494359,17.9690083 5.49045814,18.224775 C6.17250263,18.7363084 7.02505825,18.992075 7.87761386,18.992075 C8.04812498,18.992075 8.30389167,18.992075 8.47440279,18.9068195 C9.3269584,18.7363084 10.0090029,18.1395194 10.3500251,17.3722194 C10.5205363,17.1164527 10.6910474,16.9459416 10.7763029,16.9459416 C11.1173252,16.9459416 11.7141141,17.4574749 12.0551364,17.8837527 C12.310903,18.3100306 12.8224364,18.3952861 13.2487142,18.0542639 C13.5897365,17.8837527 13.674992,17.3722194 13.4192253,16.9459416 Z" id="Path" fill="#2D4D85"></path>
                    <path d="M17.9377701,5.35118524 C18.7903257,5.94797417 19.3018591,6.5447631 19.3018591,6.97104091 C19.3018591,7.39731871 18.7903257,7.73834096 18.7050701,7.82359652 C18.2787923,8.0793632 18.1935368,8.59089657 18.3640479,9.01717438 C18.534559,9.27294106 18.7903257,9.44345218 19.1313479,9.44345218 C19.3018591,9.44345218 19.4723702,9.44345218 19.5576257,9.35819662 C20.3249258,8.84666325 20.8364592,8.0793632 20.9217147,7.14155203 C20.9217147,6.03322973 20.2396702,5.010163 18.7903257,4.07235182 C18.1082812,3.64607402 17.767259,3.21979621 17.767259,2.87877397 C17.767259,2.53775172 18.6198146,1.85570723 19.1313479,1.59994055 C19.5576257,1.42942942 19.7281369,0.917896057 19.5576257,0.491618251 C19.3871146,0.0653404444 18.8755813,-0.105170678 18.4493035,0.0653404444 C18.1935368,0.150596006 16.1474033,1.08840718 15.9768922,2.70826284 C16.0621477,3.64607402 16.6589367,4.58388519 17.9377701,5.35118524 Z" id="Path" fill="#2D4D85"></path>
                    <path d="M46.5836387,39.6239209 L32.2607044,39.6239209 C30.6408487,39.6239209 29.2767597,40.9880098 29.2767597,42.6078655 L29.2767597,57.0160554 C29.2767597,58.635911 30.6408487,60 32.2607044,60 L46.7541498,60 C48.3740055,59.9147444 49.6528389,58.635911 49.6528389,57.0160554 L49.6528389,42.6078655 C49.5675833,40.9027543 48.2034943,39.6239209 46.5836387,39.6239209 Z M47.8624721,42.6078655 L47.8624721,57.0160554 C47.8624721,57.6980998 47.2656832,58.2948888 46.5836387,58.2948888 L46.4983831,58.2948888 L32.1754488,58.2948888 C31.4934043,58.2948888 30.8966154,57.6980998 30.8966154,57.0160554 L30.8966154,42.6078655 C30.8966154,41.925821 31.4934043,41.3290321 32.1754488,41.3290321 L46.4983831,41.3290321 C47.2656832,41.3290321 47.8624721,41.8405655 47.8624721,42.6078655 L47.8624721,42.6078655 Z" id="Shape" fill="#2D4D85"></path>
                    <path d="M21.0069703,25.9830311 L3.01804687,25.9830311 C1.3981912,25.9830311 0.0341022245,27.34712 0.0341022245,28.9669757 L0.0341022245,28.9669757 L0.0341022245,47.0411547 C0.0341022245,48.6610104 1.3981912,50.0250993 3.01804687,50.0250993 L21.0069703,50.0250993 C22.626826,50.0250993 23.9909149,48.6610104 23.9909149,47.0411547 L23.9909149,28.9669757 C23.9909149,27.2618645 22.7120815,25.9830311 21.0069703,25.9830311 Z M22.2858037,47.0411547 C22.2858037,47.7231992 21.6890148,48.3199881 21.0069703,48.3199881 L3.01804687,48.3199881 C2.33600238,48.3199881 1.73921345,47.7231992 1.73921345,47.0411547 L1.73921345,47.0411547 L1.73921345,28.9669757 C1.73921345,28.2849312 2.33600238,27.6881423 3.01804687,27.6881423 L21.0069703,27.6881423 C21.6890148,27.6881423 22.2858037,28.2849312 22.2858037,28.9669757 L22.2858037,47.0411547 Z" id="Shape" fill="#2D4D85"></path>
                    <path d="M43.3439273,21.2087196 C41.8093272,21.2087196 40.5304938,19.9298862 40.5304938,18.3952861 L46.2426164,18.3952861 C46.2426164,19.9298862 44.963783,21.2087196 43.3439273,21.2087196 Z" id="Path" fill="#FFFFFF"></path>
                </g>
            </g>
        </g>
    </g>
</svg>