<?xml version="1.0" encoding="UTF-8"?>
<svg width="60px" height="59px" viewBox="0 0 60 59" version="1.1" xmlns="http://www.w3.org/2000/svg" xmlns:xlink="http://www.w3.org/1999/xlink">
    <title>Icons/Utility/Alerts/Off/50</title>
    <g id="Main-Page---V2" stroke="none" stroke-width="1" fill="none" fill-rule="evenodd">
        <g id="Web_XL" transform="translate(-125.000000, -3150.000000)">
            <g id="XL/Section/Perks" transform="translate(125.000000, 2997.000000)">
                <g id="XL/Perks/Icon-+-Title-+-Description" transform="translate(0.000000, 152.000000)">
                    <g id="Recruitment-Site_Icon_C_01" transform="translate(0.000000, 1.000000)">
                        <path d="M48.6254343,5.00347464 C48.0625378,4.63364532 47.5826243,4.1508921 47.2161223,3.58582349 C46.8539095,4.14877101 46.3798985,4.63129718 45.8234885,5.00347464 C46.3889379,5.37296875 46.8716456,5.85567638 47.2411397,6.42112578 C47.6003627,5.85855929 48.071579,5.37598835 48.6254343,5.00347464 L48.6254343,5.00347464 Z" id="Path"></path>
                        <path d="M54.5378735,23.5580264 C54.5378735,24.0185835 54.1645182,24.3919388 53.7039611,24.3919388 C53.243404,24.3919388 52.8700486,24.0185835 52.8700486,23.5580264 C52.8654589,20.9992324 50.7922895,18.926063 48.2334955,18.9214732 C47.7729384,18.9214732 47.399583,18.5481179 47.399583,18.0875608 C47.399583,17.6270037 47.7729384,17.2536484 48.2334955,17.2536484 C50.7890447,17.2490768 52.8608766,15.1809711 52.8700486,12.6254343 C52.8700486,12.1648772 53.243404,11.7915219 53.7039611,11.7915219 C54.1645182,11.7915219 54.5378735,12.1648772 54.5378735,12.6254343 C54.5419153,14.8805303 56.167911,16.8056811 58.390549,17.1869354 L58.390549,15.4690757 C58.3433796,15.4730997 58.2959533,15.4730997 58.2487839,15.4690757 C57.7882268,15.4690757 57.4148714,15.0957204 57.4148714,14.6351633 L57.4148714,11.4496178 C57.4020101,10.1019819 56.579464,8.89448424 55.3300903,8.38915914 C54.957582,8.24364723 54.5624329,8.16461743 54.1626129,8.15566366 L53.0201529,8.15566366 C52.7175529,8.15345976 52.4398929,7.98750206 52.2946491,7.72202919 L48.400278,7.72202919 C48.173187,8.17221383 48.0533144,8.66882875 48.0500347,9.17303683 C48.0500347,9.63359395 47.6766794,10.0069493 47.2161223,10.0069493 C46.7555652,10.0069493 46.3822099,9.63359395 46.3822099,9.17303683 C46.3789302,8.66882875 46.2590577,8.17221383 46.0319666,7.72202919 L39.6692147,7.72202919 C40.8954631,10.2131015 43.4305569,11.7910681 46.2070883,11.7915219 C46.6676454,11.7915219 47.0410007,12.1648772 47.0410007,12.6254343 C47.0410007,13.0859915 46.6676454,13.4593468 46.2070883,13.4593468 C42.1791185,13.4639423 38.9149499,16.7281108 38.9103544,20.7560806 C38.9103544,21.2166377 38.5369991,21.5899931 38.076442,21.5899931 C37.6158849,21.5899931 37.2425295,21.2166377 37.2425295,20.7560806 C37.2334714,16.7429596 33.9921896,13.4867924 29.9791522,13.4593468 C29.5185951,13.4593468 29.1452397,13.0859915 29.1452397,12.6254343 C29.1452397,12.1648772 29.5185951,11.7915219 29.9791522,11.7915219 C32.7430824,11.77645 35.2612453,10.200984 36.4836692,7.72202919 L34.2154274,7.72202919 C34.0716423,7.98492397 33.7978637,8.15046454 33.4982627,8.15566366 L4.96177901,8.15566366 C3.13585425,8.17848949 1.66782488,9.66524599 1.66782488,11.4913134 L1.66782488,41.4204309 L57.4148714,41.4204309 L57.4148714,21.6817234 C57.4148714,21.2211663 57.7882268,20.847811 58.2487839,20.847811 C58.2957311,20.840183 58.3436018,20.840183 58.390549,20.847811 L58.390549,18.9298124 C56.1447614,19.3183985 54.5126868,21.2790076 54.5378735,23.5580264 L54.5378735,23.5580264 Z M4.84503127,15.4357192 L9.01459347,11.2661571 C9.33985055,10.9428295 9.86515292,10.9428295 10.19041,11.2661571 C10.5137375,11.5914141 10.5137375,12.1167165 10.19041,12.4419736 L6.02084781,16.6115358 C5.81704805,16.8495145 5.49705207,16.9531747 5.19242337,16.8798973 C4.88779468,16.8066199 4.64994719,16.5687724 4.5766698,16.2641437 C4.5033924,15.959515 4.60705254,15.639519 4.84503127,15.4357192 Z M14.8519805,12.9840167 L6.62960389,21.2731063 C6.30491112,21.609313 5.76914625,21.6186469 5.43293956,21.2939541 C5.09673286,20.9692614 5.08739897,20.4334965 5.41209173,20.0972898 L13.7512161,11.8082001 C13.9550159,11.5702214 14.2750119,11.4665613 14.5796406,11.5398387 C14.8842693,11.6131161 15.1221167,11.8509635 15.1953941,12.1555922 C15.2686715,12.4602209 15.1650114,12.7802169 14.9270327,12.9840167 L14.8519805,12.9840167 Z" id="Shape" fill="#4D96CF" fill-rule="nonzero" opacity="0.5"></path>
                        <path d="M59.1660876,17.2536484 C58.9061754,17.2528779 58.6467744,17.2305639 58.390549,17.1869354 C56.167911,16.8056811 54.5419153,14.8805303 54.5378735,12.6254343 C54.5378735,12.1648772 54.1645182,11.7915219 53.7039611,11.7915219 C53.243404,11.7915219 52.8700486,12.1648772 52.8700486,12.6254343 C52.8608766,15.1809711 50.7890447,17.2490768 48.2334955,17.2536484 C47.7729384,17.2536484 47.399583,17.6270037 47.399583,18.0875608 C47.399583,18.5481179 47.7729384,18.9214732 48.2334955,18.9214732 C50.7922895,18.926063 52.8654589,20.9992324 52.8700486,23.5580264 C52.8700486,24.0185835 53.243404,24.3919388 53.7039611,24.3919388 C54.1645182,24.3919388 54.5378735,24.0185835 54.5378735,23.5580264 C54.5412727,21.3010276 56.166617,19.3731301 58.390549,18.9881862 C58.6467744,18.9445578 58.9061754,18.9222437 59.1660876,18.9214732 C59.6266447,18.9214732 60,18.5481179 60,18.0875608 C60,17.6270037 59.6266447,17.2536484 59.1660876,17.2536484 L59.1660876,17.2536484 Z M53.7039611,20.4391939 C53.1491925,19.4576877 52.3357987,18.6471784 51.352328,18.0958999 C52.3308266,17.5343676 53.1424288,16.7227654 53.7039611,15.7442669 C54.2599497,16.7241675 55.0693356,17.5364338 56.047255,18.0958999 C55.0644903,18.6452727 54.2533338,19.4564291 53.7039611,20.4391939 L53.7039611,20.4391939 Z" id="Shape" fill="#2D4D85" fill-rule="nonzero"></path>
                        <path d="M52.2946491,7.72202919 C52.4398929,7.98750206 52.7175529,8.15345976 53.0201529,8.15566366 L54.1626129,8.15566366 C54.576481,8.15966651 54.9861834,8.23878146 55.371786,8.38915914 C56.6211596,8.89448424 57.4437057,10.1019819 57.4565671,11.4496178 L57.4565671,14.6601807 C57.4565671,15.1207378 57.8299224,15.4940931 58.2904795,15.4940931 C58.3376489,15.4981171 58.3850752,15.4981171 58.4322446,15.4940931 C58.8367554,15.4243552 59.1303594,15.0706155 59.1243919,14.6601807 L59.1243919,11.4496178 C59.1014991,8.70257203 56.8680584,6.48774339 54.1209173,6.48783878 L53.0201529,6.48783878 C52.5595958,6.48783878 52.1862404,6.86119409 52.1862404,7.32175122 C52.1916388,7.46165896 52.2287051,7.59851923 52.2946491,7.72202919 Z" id="Path" fill="#2D4D85" fill-rule="nonzero"></path>
                        <path d="M43.038221,5.83738707 C44.3145113,5.84112985 45.4767834,6.57281091 46.0319666,7.72202919 C46.2590577,8.17221383 46.3789302,8.66882875 46.3822099,9.17303683 C46.3822099,9.63359395 46.7555652,10.0069493 47.2161223,10.0069493 C47.6766794,10.0069493 48.0500347,9.63359395 48.0500347,9.17303683 C48.0533144,8.66882875 48.173187,8.17221383 48.400278,7.72202919 C48.9541427,6.57550593 50.1124077,5.84431074 51.3856845,5.83738707 C51.8462416,5.83738707 52.2195969,5.46403176 52.2195969,5.00347464 C52.2195969,4.54291751 51.8462416,4.1695622 51.3856845,4.1695622 C49.543456,4.1695622 48.0500347,2.67614093 48.0500347,0.833912439 C48.0500347,0.373355316 47.6766794,0 47.2161223,0 C46.7555652,0 46.3822099,0.373355316 46.3822099,0.833912439 C46.3822099,2.67614093 44.8887886,4.1695622 43.0465601,4.1695622 C42.586003,4.1695622 42.2126477,4.54291751 42.2126477,5.00347464 C42.2126477,5.46403176 42.586003,5.83738707 43.0465601,5.83738707 L43.038221,5.83738707 Z M47.2077832,3.58582349 C47.5767085,4.15173456 48.0595233,4.63454929 48.6254343,5.00347464 C48.0625378,5.37330395 47.5826243,5.85605717 47.2161223,6.42112578 C46.8539095,5.85817826 46.3798985,5.37565209 45.8234885,5.00347464 C46.3798985,4.63129718 46.8539095,4.14877101 47.2161223,3.58582349 L47.2077832,3.58582349 Z" id="Shape" fill="#2D4D85" fill-rule="nonzero"></path>
                        <path d="M29.1452397,12.6254343 C29.1452397,13.0859915 29.5185951,13.4593468 29.9791522,13.4593468 C34.0052221,13.4685178 37.266715,16.7300107 37.275886,20.7560806 C37.275886,21.2166377 37.6492413,21.5899931 38.1097985,21.5899931 C38.5703556,21.5899931 38.9437109,21.2166377 38.9437109,20.7560806 C38.9483064,16.7281108 42.212475,13.4639423 46.2404448,13.4593468 C46.7010019,13.4593468 47.0743572,13.0859915 47.0743572,12.6254343 C47.0743572,12.1648772 46.7010019,11.7915219 46.2404448,11.7915219 C43.4639134,11.7910681 40.9288196,10.2131015 39.7025712,7.72202919 C39.203459,6.72241434 38.9436623,5.62041984 38.9437109,4.50312717 C38.9437109,4.04257005 38.5703556,3.66921473 38.1097985,3.66921473 C37.6492413,3.66921473 37.275886,4.04257005 37.275886,4.50312717 C37.2759346,5.62041984 37.016138,6.72241434 36.5170257,7.72202919 C35.2892559,10.2117236 32.7551189,11.7890946 29.9791522,11.7915219 C29.5185951,11.7915219 29.1452397,12.1648772 29.1452397,12.6254343 Z M38.076442,8.2724114 C38.9702004,10.1931801 40.5153283,11.7353536 42.437804,12.6254343 C40.5153283,13.515515 38.9702004,15.0576886 38.076442,16.9784573 C37.1779254,15.0610255 35.6342278,13.5202796 33.7150799,12.6254343 C35.6342278,11.7305891 37.1779254,10.1898431 38.076442,8.2724114 L38.076442,8.2724114 Z" id="Shape" fill="#2D4D85" fill-rule="nonzero"></path>
                        <path d="M29.5205003,45.8651842 C30.0869856,45.8651842 30.5462126,45.4059571 30.5462126,44.8394719 C30.5462126,44.2729866 30.0869856,43.8137596 29.5205003,43.8137596 C28.9540151,43.8137596 28.494788,44.2729866 28.494788,44.8394719 C28.494788,45.4059571 28.9540151,45.8651842 29.5205003,45.8651842 Z" id="Path" fill="#2D4D85" fill-rule="nonzero"></path>
                        <path d="M6.00416956,21.5149549 C6.22293805,21.5140198 6.43258321,21.4271668 6.58790827,21.2731063 L14.9270327,12.9840167 C15.1650114,12.7802169 15.2686715,12.4602209 15.1953941,12.1555922 C15.1221167,11.8509635 14.8842693,11.6131161 14.5796406,11.5398387 C14.2750119,11.4665613 13.9550159,11.5702214 13.7512161,11.8082001 L5.41209173,20.0972898 C5.0887642,20.4225469 5.0887642,20.9478492 5.41209173,21.2731063 C5.56946671,21.4292035 5.78251315,21.5162225 6.00416956,21.5149549 Z" id="Path" fill="#2D4D85" fill-rule="nonzero"></path>
                        <path d="M6.02084781,16.6115358 L10.19041,12.4419736 C10.5137375,12.1167165 10.5137375,11.5914141 10.19041,11.2661571 C9.86515292,10.9428295 9.33985055,10.9428295 9.01459347,11.2661571 L4.84503127,15.4357192 C4.52170374,15.7609763 4.52170374,16.2862787 4.84503127,16.6115358 C5.17028836,16.9348633 5.69559073,16.9348633 6.02084781,16.6115358 Z" id="Path" fill="#2D4D85" fill-rule="nonzero"></path>
                        <path d="M58.390549,20.9061849 C58.3436018,20.8985568 58.2957311,20.8985568 58.2487839,20.9061849 C57.7882268,20.9061849 57.4148714,21.2795402 57.4148714,21.7400973 L57.4148714,41.4204309 L1.62612926,41.4204309 L1.62612926,11.4496178 C1.62612926,9.6073893 3.11955052,8.11396803 4.96177901,8.11396803 L33.4982627,8.11396803 C33.7978637,8.10876892 34.0716423,7.94322834 34.2154274,7.68033356 C34.3556223,7.42420977 34.3516487,7.1134161 34.2049514,6.86096032 C34.0582541,6.60850454 33.7902025,6.45116165 33.4982627,6.44614315 L4.96177901,6.44614315 C2.21473326,6.469036 0,8.70247665 0,11.4496178 L0,43.3634468 C0,46.1267896 2.2401319,48.3669215 5.00347464,48.3669215 L25.5177206,48.3669215 L24.1417651,53.495483 L19.9722029,53.495483 C18.9934918,53.3340412 18.0118354,53.7660923 17.4698138,54.5968459 C16.9277923,55.4275995 16.9277923,56.5001281 17.4698138,57.3308817 C18.0118354,58.1616353 18.9934918,58.5936864 19.9722029,58.4322446 L39.152189,58.4322446 C40.1321325,58.5851826 41.1098945,58.1447812 41.6447497,57.3095512 C42.1796048,56.4743212 42.1705479,55.4019919 41.6216615,54.5759152 C41.0727751,53.7498384 40.0877138,53.3260149 39.1104934,53.495483 L34.9409312,53.495483 L33.6066713,48.3669215 L54.1626129,48.3669215 C56.9259557,48.3669215 59.1660876,46.1267896 59.1660876,43.3634468 L59.1660876,21.6817234 C59.1378531,21.2656609 58.8066115,20.9344193 58.390549,20.9061849 Z M34.8075052,55.0965949 L39.0687978,55.0965949 C39.530229,55.0757357 39.9299243,55.4136599 39.9861015,55.8721334 C40.0148664,56.1100568 39.9398789,56.3488552 39.7802643,56.5276235 C39.6206497,56.7063919 39.3918386,56.8078479 39.152189,56.8061372 L19.9722029,56.8061372 C19.7325533,56.8078479 19.5037422,56.7063919 19.3441276,56.5276235 C19.184513,56.3488552 19.1095255,56.1100568 19.1382905,55.8721334 C19.197915,55.4517207 19.5480463,55.1331012 19.9722029,55.1132731 L24.2251564,55.1132731 C24.8917432,55.1156402 25.4752117,54.6660262 25.6428075,54.0208478 L27.1104934,48.3669215 L31.9305073,48.3669215 L33.3981932,54.0291869 C33.5656136,54.6697599 34.1454198,55.1157647 34.8075052,55.1132731 L34.8075052,55.0965949 Z M57.4148714,43.3634468 C57.4148714,45.2056753 55.9214502,46.6990966 54.0792217,46.6990966 L4.96177901,46.6990966 C3.11955052,46.6990966 1.62612926,45.2056753 1.62612926,43.3634468 L1.62612926,43.0548992 L57.4148714,43.0548992 L57.4148714,43.3634468 Z" id="Shape" fill="#2D4D85" fill-rule="nonzero"></path>
                    </g>
                </g>
            </g>
        </g>
    </g>
</svg>