<?xml version="1.0" encoding="UTF-8"?>
<svg width="60px" height="60px" viewBox="0 0 60 60" version="1.1" xmlns="http://www.w3.org/2000/svg" xmlns:xlink="http://www.w3.org/1999/xlink">
    <title>Icons/Utility/Alerts/Off/50</title>
    <g id="Main-Page---V2" stroke="none" stroke-width="1" fill="none" fill-rule="evenodd">
        <g id="Web_XL" transform="translate(-695.000000, -3385.000000)" fill-rule="nonzero">
            <g id="XL/Section/Perks" transform="translate(125.000000, 2997.000000)">
                <g id="XL/Perks/Icon-+-Title-+-Description" transform="translate(570.000000, 388.000000)">
                    <g id="Recruitment-Site_Icon_C_04" transform="translate(0.000000, 0.083139)">
                        <path d="M46.0435248,33.478416 C47.2422405,29.6254014 47.8415983,25.5155191 47.8415983,21.4912594 C43.5604709,23.0324652 39.5362112,25.344274 36.1113093,28.3410631 C35.3407064,24.2311809 33.5426329,19.5219408 30.117731,14.2133428 C27.2065644,18.4944702 25.1516233,23.2893329 24.1241527,28.4266857 C20.6136283,25.4298965 16.6749911,23.1180878 12.3082412,21.5768819 C12.2226186,25.6011416 12.8219765,29.7110239 14.1063147,33.5640385 C9.6539422,32.7934356 5.20156975,32.7078131 0.834819836,33.3927934 C0.834819836,33.3927934 12.1369961,54.7984303 30.0321085,47.6917588 L30.0321085,47.6917588 C47.9272208,54.7984303 59.1437745,33.3927934 59.1437745,33.3927934 C54.7770246,32.7078131 50.3246522,32.7078131 46.0435248,33.478416 Z" id="Path" fill="#4D96CF" opacity="0.5"></path>
                        <path d="M59.9143775,32.9646807 C59.7431324,32.7078131 59.5718873,32.536568 59.2293971,32.536568 C55.2051374,31.9372101 51.1808776,31.9372101 47.1566179,32.4509454 C48.1840885,28.8547984 48.6122012,25.1730289 48.5265787,21.4912594 C48.5265787,21.2343917 48.3553336,20.9775241 48.0984659,20.806279 C47.8415983,20.6350339 47.5847306,20.6350339 47.327863,20.7206564 C43.3892258,22.1762397 39.7074563,24.2311809 36.4537995,26.7998573 C35.3407064,22.0906172 33.3713878,17.7238673 30.7170888,13.6996076 C30.5458437,13.4427399 30.2889761,13.3571174 30.0321085,13.3571174 C29.7752408,13.3571174 29.5183732,13.4427399 29.3471281,13.6996076 C26.6072066,17.6382447 24.637888,22.0906172 23.5247949,26.7998573 C20.1855155,24.2311809 16.503746,22.1762397 12.5651088,20.7206564 C12.1369961,20.5494113 11.6232608,20.806279 11.4520157,21.2343917 C11.4520157,21.3200143 11.3663932,21.4056368 11.3663932,21.4912594 C11.2807706,25.1730289 11.7945059,28.940421 12.8219765,32.536568 C8.79771673,32.0228327 4.77345701,32.0228327 0.749197289,32.6221905 C0.492329647,32.6221905 0.235462005,32.7934356 0.0642169105,33.0503032 C-0.0214056368,33.3071709 -0.0214056368,33.5640385 0.0642169105,33.8209062 C0.149839458,33.9921513 8.79771673,50.0035676 22.8398145,50.0035676 C25.3228684,50.0035676 27.7202997,49.4898323 30.0321085,48.6336068 C32.3439172,49.4898323 34.7413486,50.0035676 37.2244024,50.0035676 C51.2665002,50.0035676 59.9143775,33.9921513 60,33.8209062 C60,33.478416 60,33.2215483 59.9143775,32.9646807 Z M45.1872993,33.2215483 C42.8754905,40.2425972 38.6799857,44.6093471 32.6007849,46.2361755 C34.4844809,44.0099893 35.8544417,41.3556903 36.6250446,38.5301463 C37.4812701,35.362112 37.5668926,32.0228327 36.9675348,28.7691759 C39.9643239,26.286122 43.3036033,24.2311809 46.9853728,22.8612201 C46.8141277,26.3717446 46.3003924,29.882269 45.1872993,33.2215483 L45.1872993,33.2215483 Z M29.9464859,15.7545487 C32.4295398,19.6075633 34.2276133,23.9743132 35.1694613,28.5123082 L35.1694613,28.5123082 C35.7688191,31.6803425 35.6831966,34.9339993 34.9125936,38.016411 C34.0563682,41.1844452 32.4295398,44.0956118 30.0321085,46.4074206 C27.6346771,44.0956118 25.9222262,41.1844452 25.0660007,38.016411 C24.2953978,34.9339993 24.2097752,31.6803425 24.8947556,28.5123082 C25.7509811,23.9743132 27.463432,19.6931859 29.9464859,15.7545487 Z M23.0966821,28.6835533 C22.4973243,31.9372101 22.5829468,35.1908669 23.4391723,38.4445237 C24.2097752,41.3556903 25.579736,44.0099893 27.5490546,46.2361755 C21.3842312,44.6093471 17.1031038,40.2425972 14.791295,33.2215483 C13.7638245,29.7966465 13.1644666,26.286122 13.0788441,22.689975 C16.7606136,24.1455583 20.099893,26.2004995 23.0966821,28.6835533 Z M9.31145202,42.554406 C6.5715305,40.0713521 4.17409918,37.2458081 2.20478059,34.0777738 C5.88655012,33.6496611 9.6539422,33.6496611 13.3357117,34.2490189 C15.8187656,41.3556903 20.3567606,45.9793079 26.6928291,47.7773814 C20.6992508,49.1473421 14.8769176,47.4348912 9.31145202,42.554406 Z M33.2857653,47.7773814 C39.6218337,45.9793079 44.1598288,41.3556903 46.6428826,34.2490189 C50.3246522,33.6496611 54.0920442,33.5640385 57.7738138,34.0777738 C55.3763824,37.9307884 46.386015,50.688548 33.2857653,47.7773814 Z" id="Shape" fill="#2D4D85"></path>
                        <path d="M16.6749911,17.3813771 L16.8462362,17.3813771 C17.2743489,17.3813771 17.6168391,17.1245095 17.7024616,16.6963967 C19.4149126,9.93221548 26.3503389,5.90795576 33.1145202,7.62040671 C37.5668926,8.73349982 41.0774171,12.2440243 42.1905102,16.6963967 C42.2761327,17.1245095 42.789868,17.4669996 43.2179807,17.2957545 C43.6460935,17.210132 43.9885837,16.6963967 43.8173386,16.268284 L43.8173386,16.268284 C41.9336425,8.64787727 34.0563682,4.02425972 26.4359615,5.99357831 C21.3842312,7.27791652 17.3599715,11.2165537 16.0756333,16.3539065 C15.9900107,16.7820193 16.2468783,17.210132 16.6749911,17.3813771 C16.6749911,17.3813771 16.6749911,17.3813771 16.6749911,17.3813771 Z" id="Path" fill="#2D4D85"></path>
                        <path d="M11.3663932,14.9839458 L13.1644666,15.5833036 C13.2500892,15.5833036 13.3357117,15.5833036 13.4213343,15.5833036 C13.9350696,15.5833036 14.2775598,15.2408134 14.2775598,14.7270781 C14.2775598,14.3845879 14.0206921,13.9564752 13.6782019,13.8708527 L11.8801284,13.2714948 C11.4520157,13.1002497 10.9382804,13.4427399 10.8526579,13.8708527 C10.7670353,14.3845879 10.9382804,14.8127007 11.3663932,14.9839458 L11.3663932,14.9839458 Z" id="Path" fill="#2D4D85"></path>
                        <path d="M16.4181234,9.07599001 C16.5893685,9.24723511 16.7606136,9.33285765 17.0174813,9.33285765 C17.2743489,9.33285765 17.5312166,9.24723511 17.6168391,9.07599001 C17.9593293,8.73349982 17.8737067,8.21976454 17.5312166,7.87727435 C17.5312166,7.87727435 17.5312166,7.87727435 17.5312166,7.87727435 L16.2468783,6.59293614 C15.9043882,6.25044595 15.3906529,6.25044595 15.0481627,6.59293614 C14.7056725,6.93542633 14.7056725,7.44916161 15.0481627,7.7916518 C15.0481627,7.7916518 15.1337852,7.87727435 15.1337852,7.87727435 L16.4181234,9.07599001 Z" id="Path" fill="#2D4D85"></path>
                        <path d="M22.0692116,4.53799501 C22.2404567,4.88048519 22.4973243,5.05173029 22.8398145,5.05173029 C22.925437,5.05173029 23.0966821,5.05173029 23.1823047,4.96610774 C23.6104174,4.79486265 23.7816625,4.28112736 23.6104174,3.85301463 L22.8398145,2.14056368 C22.5829468,1.71245095 22.0692116,1.6268284 21.6410988,1.88369604 C21.3842312,2.14056368 21.2986086,2.48305387 21.3842312,2.82554406 L22.0692116,4.53799501 Z" id="Path" fill="#2D4D85"></path>
                        <path d="M29.9464859,3.59614699 C30.4602212,3.59614699 30.8027114,3.2536568 30.8027114,2.73992151 L30.8027114,0.856225473 C30.8027114,0.342490189 30.4602212,0 29.9464859,0 C29.4327506,0 29.0902604,0.342490189 29.0902604,0.856225473 L29.0902604,2.73992151 C29.0902604,3.16803425 29.4327506,3.59614699 29.9464859,3.59614699 Z" id="Path" fill="#2D4D85"></path>
                        <path d="M36.7106671,4.96610774 C36.7962897,5.05173029 36.9675348,5.05173029 37.0531573,5.05173029 C37.3956475,5.05173029 37.7381377,4.88048519 37.8237603,4.53799501 L38.5943632,2.82554406 C38.7656083,2.39743132 38.5943632,1.88369604 38.1662504,1.71245095 C38.1662504,1.71245095 38.1662504,1.71245095 38.1662504,1.71245095 C37.7381377,1.54120585 37.2244024,1.71245095 37.0531573,2.14056368 C37.0531573,2.14056368 37.0531573,2.14056368 37.0531573,2.14056368 L36.2825544,3.85301463 C36.1113093,4.28112736 36.2825544,4.79486265 36.7106671,4.96610774 C36.7106671,4.96610774 36.7106671,4.96610774 36.7106671,4.96610774 Z" id="Path" fill="#2D4D85"></path>
                        <path d="M42.9611131,9.33285765 C43.1323582,9.33285765 43.3892258,9.24723511 43.5604709,9.07599001 L44.9304317,7.87727435 C45.2729219,7.53478416 45.2729219,7.02104888 44.9304317,6.67855869 C44.5879415,6.3360685 44.1598288,6.3360685 43.8173386,6.59293614 L42.4473778,7.87727435 C42.1048876,8.21976454 42.1048876,8.73349982 42.3617553,9.07599001 C42.4473778,9.24723511 42.7042455,9.33285765 42.9611131,9.33285765 Z" id="Path" fill="#2D4D85"></path>
                        <path d="M46.5572601,15.5833036 C46.6428826,15.5833036 46.7285052,15.5833036 46.8141277,15.5833036 L48.5265787,14.9839458 C48.9546914,14.8127007 49.211559,14.3845879 49.0403139,13.8708527 C48.8690689,13.4427399 48.4409561,13.1858723 47.9272208,13.3571174 L46.2147699,13.9564752 C45.7866572,14.1277203 45.5297895,14.555833 45.7010346,15.0695683 C45.7866572,15.4120585 46.1291473,15.5833036 46.5572601,15.5833036 L46.5572601,15.5833036 Z" id="Path" fill="#2D4D85"></path>
                        <path d="M42.1905102,51.5447735 C41.7623974,51.2879058 41.2486621,51.4591509 40.9917945,51.8872636 C40.9917945,51.8872636 40.9917945,51.8872636 40.9917945,51.8872636 C37.3956475,57.9664645 29.6039957,60.0214056 23.5247949,56.4252587 C21.6410988,55.3121655 20.099893,53.7709597 18.9867999,51.8872636 C18.7299322,51.4591509 18.2161969,51.3735284 17.7880842,51.5447735 C17.3599715,51.8016411 17.2743489,52.3153764 17.445594,52.7434891 C21.4698537,59.6789154 30.3745986,61.9907242 37.310025,57.880842 C39.4505887,56.5965037 41.2486621,54.8840528 42.4473778,52.7434891 C42.7042455,52.3153764 42.6186229,51.8016411 42.1905102,51.5447735 C42.1905102,51.5447735 42.1905102,51.5447735 42.1905102,51.5447735 Z" id="Path" fill="#2D4D85"></path>
                        <path d="M37.6525152,52.8291117 C37.9950054,52.4866215 37.9950054,51.9728862 37.6525152,51.630396 C37.310025,51.2879058 36.7962897,51.2879058 36.4537995,51.630396 L36.4537995,51.630396 C33.1145202,55.1409204 27.463432,55.3121655 23.9529076,51.9728862 C23.8672851,51.8872636 23.69604,51.7160186 23.6104174,51.630396 C23.2679272,51.2879058 22.7541919,51.2879058 22.4117017,51.630396 C22.4117017,51.630396 22.4117017,51.630396 22.4117017,51.630396 C22.0692116,51.9728862 22.0692116,52.4866215 22.4117017,52.8291117 C26.4359615,57.0246165 33.1145202,57.1958616 37.3956475,53.1716019 C37.3956475,53.0859793 37.5668926,52.9147342 37.6525152,52.8291117 L37.6525152,52.8291117 Z" id="Path" fill="#2D4D85"></path>
                    </g>
                </g>
            </g>
        </g>
    </g>
</svg>