<svg width="60" height="60" viewBox="0 0 60 60" fill="none" xmlns="http://www.w3.org/2000/svg">
<g clip-path="url(#clip0_152_25941)">
<path opacity="0.5" d="M37.5188 30.8483C37.5154 29.2851 37.0485 27.7581 36.1773 26.4602C35.306 25.1624 34.0694 24.1521 32.624 23.557C31.1785 22.9619 29.589 22.8089 28.0566 23.1171C26.5241 23.4254 25.1175 24.1812 24.0145 25.2889C22.9116 26.3966 22.1619 27.8065 21.8603 29.3403C21.5586 30.8741 21.7186 32.4629 22.3199 33.9058C22.9212 35.3487 23.9369 36.5808 25.2385 37.4465C26.5401 38.3121 28.0692 38.7723 29.6324 38.7689C30.6706 38.7678 31.6984 38.5619 32.657 38.1631C33.6155 37.7642 34.486 37.1802 35.2185 36.4445C35.9511 35.7087 36.5313 34.8357 36.926 33.8755C37.3207 32.9152 37.5221 31.8865 37.5188 30.8483Z" fill="#4D96CF"/>
<path opacity="0.5" d="M55.8947 36.7224C55.626 36.6083 55.3374 36.5484 55.0455 36.546C54.7536 36.5437 54.4641 36.599 54.1936 36.7088C53.9231 36.8186 53.677 36.9807 53.4693 37.1858C53.2616 37.3909 53.0964 37.635 52.9833 37.9041L48.3765 48.8303L40.5843 42.6394C40.4529 42.5338 40.3091 42.4447 40.1561 42.3739C39.2998 41.9115 37.5273 41.6461 34.0679 41.6461H25.1968C21.6946 41.6632 19.982 41.9115 19.1257 42.3739C18.9728 42.4447 18.829 42.5338 18.6976 42.6394L10.9054 48.8303L6.28143 37.9041C6.16898 37.6342 6.00448 37.3892 5.79731 37.1828C5.59014 36.9765 5.34437 36.8131 5.07403 36.7018C4.80368 36.5904 4.51405 36.5335 4.22169 36.5341C3.92932 36.5347 3.63994 36.5929 3.37006 36.7053C3.10018 36.8178 2.85509 36.9823 2.64879 37.1894C2.44249 37.3966 2.27901 37.6424 2.16769 37.9127C2.05637 38.1831 1.99939 38.4727 2 38.7651C2.00062 39.0574 2.05881 39.3468 2.17126 39.6167L7.91694 53.2488C8.04897 53.566 8.25316 53.848 8.51329 54.0725C8.77342 54.2969 9.08232 54.4576 9.41544 54.5418C9.59487 54.5856 9.77876 54.6086 9.96346 54.6103C10.468 54.6108 10.9576 54.4385 11.3506 54.1222L19.6395 47.5373V59.7052H39.6167V47.5545L47.9055 54.1393C48.2993 54.4544 48.7884 54.6265 49.2927 54.6274C49.4774 54.6257 49.6613 54.6028 49.8407 54.5589C50.1738 54.4747 50.4827 54.3141 50.7429 54.0896C51.003 53.8651 51.2072 53.5831 51.3392 53.2659L57.0849 39.6338C57.1988 39.3646 57.2583 39.0755 57.2601 38.7832C57.2618 38.491 57.2058 38.2012 57.0952 37.9306C56.9846 37.6601 56.8216 37.414 56.6155 37.2067C56.4095 36.9994 56.1645 36.8348 55.8947 36.7224Z" fill="#4D96CF"/>
<g opacity="0.5">
<path opacity="0.5" d="M58.0568 20.3343L50.0402 12.3176L42.0236 20.3343L50.0402 28.3509L58.0568 20.3343Z" fill="#4D96CF"/>
<path opacity="0.5" d="M30.2832 15.2211C33.9341 15.2211 36.8937 12.2614 36.8937 8.61053C36.8937 4.95964 33.9341 2 30.2832 2C26.6323 2 23.6726 4.95964 23.6726 8.61053C23.6726 12.2614 26.6323 15.2211 30.2832 15.2211Z" fill="#4D96CF"/>
<path opacity="0.5" d="M9.55247 13.8168L2.03427 26.858H17.0792L9.55247 13.8168Z" fill="#4D96CF"/>
</g>
<path d="M58.0568 20.3343L50.0402 12.3176L42.0236 20.3343L50.0402 28.3509L58.0568 20.3343Z" stroke="#2D4D85" stroke-width="2" stroke-linecap="round" stroke-linejoin="round"/>
<path d="M30.2832 15.2211C33.9341 15.2211 36.8937 12.2614 36.8937 8.61053C36.8937 4.95964 33.9341 2 30.2832 2C26.6323 2 23.6726 4.95964 23.6726 8.61053C23.6726 12.2614 26.6323 15.2211 30.2832 15.2211Z" stroke="#2D4D85" stroke-width="2" stroke-linecap="round" stroke-linejoin="round"/>
<path d="M9.55247 13.8168L2.03427 26.858H17.0792L9.55247 13.8168Z" stroke="#2D4D85" stroke-width="2" stroke-linecap="round" stroke-linejoin="round"/>
</g>
<defs>
<clipPath id="clip0_152_25941">
<rect width="60" height="60" fill="white"/>
</clipPath>
</defs>
</svg>
