<svg width="60" height="60" viewBox="0 0 60 60" fill="none" xmlns="http://www.w3.org/2000/svg">
<path d="M49.355 38.5769L36.1201 51.8284L41.5415 57.2565L54.7764 44.0051L49.355 38.5769Z" stroke="#2D4D85" stroke-width="2" stroke-linecap="round" stroke-linejoin="round"/>
<path d="M47.3618 40.5745C47.3618 40.5745 43.2988 33.1617 38.0118 33.0936C32.7248 33.0255 21.8023 33.0936 21.8023 33.0936C21.8023 33.0936 18.9718 34.0213 18.9718 36.3617C18.9718 38.7021 22.1593 39.5191 22.1593 39.5191H30.4553" stroke="#2D4D85" stroke-width="2" stroke-linecap="round" stroke-linejoin="round"/>
<path d="M37.8928 50.0553C37.8928 50.0553 38.0968 46.5575 33.2858 46.5575H20.3403C20.3403 46.5575 17.1783 46.6596 15.9373 44.9319C14.6963 43.2043 8.17682 33.6213 8.17682 33.6213C8.17682 33.6213 7.04632 31.0511 9.12882 29.4596C9.72439 29.0455 10.4366 28.8328 11.1615 28.8527C11.8863 28.8726 12.5858 29.124 13.1578 29.5702L18.9633 35.417" stroke="#2D4D85" stroke-width="2" stroke-linecap="round" stroke-linejoin="round"/>
<path opacity="0.5" d="M33.7618 8.0553C27.8883 8.0553 27.8798 12.7872 27.8798 12.7872C27.8798 12.7872 27.8798 8.0553 22.0063 8.0553C16.1328 8.0553 14.9938 14.9574 19.4563 18.4638C22.4035 20.8203 25.2238 23.3316 27.9053 25.9872C30.6047 23.3316 33.442 20.8204 36.4053 18.4638C40.7743 14.9915 39.6353 8.0553 33.7618 8.0553Z" fill="#4D96CF"/>
<path d="M33.7618 8.0553C27.8883 8.0553 27.8798 12.7872 27.8798 12.7872C27.8798 12.7872 27.8798 8.0553 22.0063 8.0553C16.1328 8.0553 14.9938 14.9574 19.4563 18.4638C22.4035 20.8203 25.2238 23.3316 27.9053 25.9872C30.6047 23.3316 33.442 20.8204 36.4053 18.4638C40.7743 14.9915 39.6353 8.0553 33.7618 8.0553Z" stroke="#2D4D85" stroke-width="2" stroke-linecap="round" stroke-linejoin="round"/>
<path opacity="0.5" d="M14.5688 21.6298C14.5688 21.6298 7.41182 18.6256 10.9988 8.86389" stroke="#4D96CF" stroke-width="2" stroke-miterlimit="10" stroke-linecap="round"/>
<path opacity="0.5" d="M11.1178 24.6596C11.1178 24.6596 1.55532 20.6596 6.34082 7.63831" stroke="#4D96CF" stroke-width="2" stroke-miterlimit="10" stroke-linecap="round"/>
<path opacity="0.5" d="M42.4998 22.1064C41.2468 23.714 39.8652 25.2168 38.3688 26.6001" stroke="#4D96CF" stroke-width="2" stroke-miterlimit="10" stroke-linecap="round"/>
<path opacity="0.5" d="M41.2928 4.43835C41.2928 4.43835 49.1638 8.8724 45.1688 17.8341" stroke="#4D96CF" stroke-width="2" stroke-miterlimit="10" stroke-linecap="round"/>
<path opacity="0.5" d="M45.7723 25.2042C44.7464 26.4808 43.6541 27.7023 42.4998 28.8638" stroke="#4D96CF" stroke-width="2" stroke-miterlimit="10" stroke-linecap="round"/>
<path opacity="0.5" d="M46.1803 3C46.1803 3 53.2948 7.51915 50.5493 16.6936" stroke="#4D96CF" stroke-width="2" stroke-miterlimit="10" stroke-linecap="round"/>
</svg>
